<svg width="186" height="30" viewBox="0 0 186 30" fill="none" xmlns="http://www.w3.org/2000/svg">
<path d="M4.56463 29.7695H0V22.3877C0 19.8569 2.04366 17.8052 4.56463 17.8052V13.8107C2.04366 13.8107 0 11.759 0 9.22817V2.23045H4.56463V13.8107H17.4268V2.23045H21.9915V29.7695H17.4268V17.8052H4.56463V29.7695Z" fill="white"/>
<path d="M31.3149 22.9712L28.7425 29.7695H24.0231L34.4096 2.23045H39.8446L50.1731 29.7695H45.299L42.6878 22.9712H31.3149ZM41.4113 19.1111L36.982 7.10837L32.5915 19.1111H41.4113Z" fill="white"/>
<path d="M50.522 17.9781V2.23045H55.0673V18.2085C55.0673 23.3937 57.1755 25.9863 61.4114 25.9863C65.8019 25.9863 67.8328 23.3745 67.8328 18.2085V2.23045H72.3781V17.9781C72.3781 25.8326 68.6065 30 61.4114 30C54.2743 30 50.522 25.8326 50.522 17.9781Z" fill="white"/>
<path d="M75.3961 20.7243L79.9801 20.8011C80.0962 22.4335 80.7538 23.7394 81.953 24.7188C83.1522 25.6982 84.7188 26.1975 86.6337 26.1975C88.3164 26.1975 89.6896 25.8326 90.7341 25.1029C91.7785 24.3923 92.3008 23.3937 92.3008 22.107C92.3008 21.2812 92.03 20.5899 91.6432 20.1097C91.2563 19.6296 90.4246 19.1687 89.7477 18.8807C89.3995 18.7462 88.9353 18.5926 88.3551 18.4582C87.7748 18.3237 87.2526 18.1893 86.8077 18.0933C86.3629 17.9973 85.7633 17.9012 85.009 17.7668C82.9394 17.4019 81.5468 17.0754 79.9028 16.2881C79.0711 15.8848 78.3941 15.4239 77.8719 14.9053C76.8081 13.8683 76.0731 12.1975 76.0731 10.0658C76.0731 7.6653 76.9822 5.70645 78.8003 4.22771C80.5991 2.74897 82.9781 2 85.918 2C89.0707 2 91.5851 2.76818 93.4613 4.32373C95.3374 5.87929 96.3238 7.93416 96.4205 10.4883H91.8753C91.7012 9.08642 91.0822 7.95336 90.0184 7.08916C88.9547 6.24417 87.5814 5.82167 85.918 5.82167C82.688 5.82167 80.6184 7.22359 80.6184 9.75857C80.6184 10.4499 80.7538 11.0261 81.1406 11.487C81.5275 11.9671 81.8756 12.3128 82.6106 12.62C83.3456 12.9273 83.8485 13.1193 84.8929 13.3498C85.4151 13.465 85.86 13.561 86.2662 13.6379C86.6723 13.7147 87.1946 13.8107 87.8328 13.9259C88.8773 14.118 89.7864 14.31 90.56 14.5213C91.3337 14.7325 92.146 15.0206 92.9971 15.4239C93.8288 15.8272 94.5251 16.2881 95.0473 16.8066C96.1111 17.8628 96.8848 19.5336 96.8654 21.6269C96.8654 24.1043 95.9177 26.1207 94.0222 27.6763C92.1073 29.2318 89.6316 30 86.595 30C83.2102 30 80.5023 29.155 78.5102 27.4458C76.518 25.7558 75.4735 23.5089 75.3961 20.7243Z" fill="white"/>
<path d="M105.886 6.24417H97.3373V2.23045H119V6.24417H110.451V29.7695H105.886V6.24417Z" fill="white"/>
<path d="M136.688 8.97656H131.953V14H130.492V2.625H137.477V3.85938H131.953V7.75H136.688V8.97656ZM145.078 11.0547H141.282L140.368 14H138.922L142.594 2.625H143.805L147.414 14H145.977L145.078 11.0547ZM141.672 9.79688H144.696L143.196 4.85938L141.672 9.79688ZM156.079 2.625L156.094 10.3281C156.094 10.8594 156.001 11.3568 155.813 11.8203C155.626 12.2839 155.368 12.6875 155.04 13.0312C154.712 13.3802 154.321 13.6562 153.868 13.8594C153.415 14.0573 152.917 14.1562 152.376 14.1562C151.824 14.1562 151.321 14.0573 150.868 13.8594C150.415 13.6615 150.027 13.388 149.704 13.0391C149.381 12.6953 149.128 12.2917 148.946 11.8281C148.764 11.3594 148.67 10.8594 148.665 10.3281L148.68 2.625H150.055L150.087 10.3281C150.092 10.6667 150.144 10.9922 150.243 11.3047C150.347 11.6172 150.495 11.8932 150.688 12.1328C150.876 12.3724 151.11 12.5651 151.391 12.7109C151.678 12.8568 152.006 12.9297 152.376 12.9297C152.745 12.9297 153.071 12.8594 153.352 12.7188C153.633 12.5729 153.87 12.3776 154.063 12.1328C154.251 11.8932 154.394 11.6172 154.493 11.3047C154.592 10.9922 154.646 10.6667 154.657 10.3281L154.68 2.625H156.079ZM165.595 10.5781C165.527 11.1042 165.392 11.5885 165.188 12.0312C164.985 12.4688 164.722 12.8438 164.399 13.1562C164.071 13.474 163.683 13.7214 163.235 13.8984C162.793 14.0703 162.298 14.1562 161.751 14.1562C161.282 14.1562 160.855 14.0911 160.47 13.9609C160.089 13.8255 159.751 13.6406 159.454 13.4062C159.152 13.1719 158.892 12.8958 158.673 12.5781C158.459 12.2604 158.282 11.9141 158.142 11.5391C157.996 11.1641 157.886 10.7708 157.813 10.3594C157.746 9.94792 157.709 9.53125 157.704 9.10938V7.52344C157.709 7.10156 157.746 6.6849 157.813 6.27344C157.886 5.86198 157.996 5.46875 158.142 5.09375C158.282 4.71875 158.459 4.3724 158.673 4.05469C158.892 3.73177 159.152 3.45312 159.454 3.21875C159.751 2.98438 160.089 2.80208 160.47 2.67188C160.85 2.53646 161.277 2.46875 161.751 2.46875C162.319 2.46875 162.826 2.55729 163.274 2.73438C163.722 2.90625 164.108 3.15104 164.431 3.46875C164.754 3.79167 165.011 4.17708 165.204 4.625C165.402 5.07292 165.532 5.56771 165.595 6.10938H164.149C164.103 5.76562 164.022 5.44531 163.907 5.14844C163.793 4.85156 163.639 4.59115 163.446 4.36719C163.254 4.14323 163.017 3.96875 162.735 3.84375C162.459 3.71354 162.131 3.64844 161.751 3.64844C161.407 3.64844 161.103 3.70573 160.837 3.82031C160.576 3.92969 160.353 4.08073 160.165 4.27344C159.972 4.46615 159.811 4.6901 159.681 4.94531C159.556 5.20052 159.454 5.47135 159.376 5.75781C159.298 6.04427 159.241 6.33854 159.204 6.64062C159.173 6.9375 159.157 7.22656 159.157 7.50781V9.10938C159.157 9.39062 159.173 9.68229 159.204 9.98438C159.241 10.2812 159.298 10.5729 159.376 10.8594C159.454 11.151 159.556 11.4245 159.681 11.6797C159.806 11.9349 159.964 12.1589 160.157 12.3516C160.35 12.5495 160.576 12.7057 160.837 12.8203C161.097 12.9297 161.402 12.9844 161.751 12.9844C162.131 12.9844 162.459 12.9245 162.735 12.8047C163.017 12.6849 163.254 12.5156 163.446 12.2969C163.639 12.0833 163.793 11.8307 163.907 11.5391C164.022 11.2422 164.103 10.9219 164.149 10.5781H165.595ZM173.775 8.74219H169.025V12.7734H174.564V14H167.579V2.625H174.493V3.85938H169.025V7.51562H173.775V8.74219ZM184.478 3.85938H180.963V14H179.556V3.85938H176.041V2.625H184.478V3.85938Z" fill="white"/>
</svg>
